<svg xmlns="http://www.w3.org/2000/svg" width="57.979" height="57.979" viewBox="0 0 57.979 57.979">
  <g id="Dribbble-Light-Preview" transform="translate(-3.588 1.412)">
    <g id="icons" transform="translate(3.588 -1.412)">
      <path id="shopping_cart-_1135_" data-name="shopping_cart-[#1135]" d="M212.837,3011.181h-39.7a2.9,2.9,0,0,1-2.87-3.308l3.314-23.192a2.9,2.9,0,0,1,2.87-2.49h2.038v5.8a2.9,2.9,0,1,0,5.8,0v-5.8h17.394v5.8a2.9,2.9,0,1,0,5.8,0v-5.8h2.041a2.9,2.9,0,0,1,2.87,2.49l3.314,23.192a2.9,2.9,0,0,1-2.87,3.308Zm-28.546-37.687a8.707,8.707,0,0,1,8.7-8.7c4.8,0,8.7,2.9,8.7,8.7v2.9H184.291Zm37.629,36.867-4.143-28.989a5.8,5.8,0,0,0-5.74-4.978h-4.554v-2.9A14.079,14.079,0,0,0,192.988,2959a14.513,14.513,0,0,0-14.495,14.495v2.9h-3.667c-2.885,0-6.218,2.122-6.627,4.978l-4.14,28.989a5.8,5.8,0,0,0,5.74,6.618H216.18a5.8,5.8,0,0,0,5.74-6.618Z" transform="translate(-164 -2959)" fill="#ba8046" fill-rule="evenodd"/>
    </g>
  </g>
</svg>
